<svg width="600" height="600" viewBox="0 0 600 600" fill="none" xmlns="http://www.w3.org/2000/svg">
<rect width="600" height="600" fill="black"/>
<path d="M471 276.317C471 225.359 430.707 198.972 402.035 198.972C378.996 198.972 354.625 207.851 332.82 224.747C341.273 235.473 348.847 247.149 355.369 259.595C369.887 287.298 372.4 316.551 362.952 340.376C353.257 364.825 330.635 383.048 300 383.048C269.365 383.048 246.743 364.825 237.048 340.376C227.6 316.551 230.113 287.298 244.631 259.595C251.153 247.149 258.726 235.472 267.179 224.747C245.374 207.852 221.003 198.972 197.965 198.972C169.293 198.972 129 225.359 129 276.317C129 351.824 168.881 391.952 182.603 410.903C190.107 421.267 187.334 435.44 176.408 442.559C165.482 449.678 150.542 447.047 143.037 436.682C131.817 421.186 81.0001 368.739 81 276.317C81 200.252 142.741 153.439 197.965 153.438C234.942 153.438 270.32 167.583 300 191.456C329.68 167.583 365.058 153.438 402.035 153.438C457.259 153.439 519 200.252 519 276.317C519 368.739 468.183 421.186 456.963 436.682C449.458 447.047 434.518 449.678 423.592 442.559C412.666 435.44 409.893 421.267 417.397 410.903C431.119 391.952 471 351.824 471 276.317ZM300 259.501C295.56 265.826 291.411 272.618 287.613 279.864C277.878 298.441 278.056 314.464 281.975 324.345C285.645 333.602 292.089 337.514 300 337.514C307.911 337.514 314.355 333.602 318.025 324.345C321.944 314.464 322.122 298.441 312.387 279.864C308.589 272.618 304.44 265.826 300 259.501Z" fill="#FFF302"/>
</svg>
